<?xml version="1.0" encoding="iso-8859-1"?>
<!-- Generator: Adobe Illustrator 18.1.1, SVG Export Plug-In . SVG Version: 6.00 Build 0)  -->
<svg xmlns="http://www.w3.org/2000/svg" xmlns:xlink="http://www.w3.org/1999/xlink" version="1.1" id="Capa_1" x="0px" y="0px" viewBox="0 0 33.811 33.811" style="enable-background:new 0 0 33.811 33.811;" xml:space="preserve" width="512px" height="512px">
<g>
	<rect x="8.727" y="5.82" width="25.084" height="5.102" fill="#2D84B3"/>
	<rect x="8.727" y="14.038" width="25.084" height="5.102" fill="#2D84B3"/>
	<rect x="8.727" y="22.82" width="25.084" height="5.1" fill="#2D84B3"/>
	<circle cx="2.621" cy="8.442" r="2.621" fill="#2D84B3"/>
	<path d="M2.621,13.966c-1.448,0-2.62,1.172-2.62,2.62c0,1.449,1.172,2.625,2.62,2.625   c1.447,0,2.622-1.176,2.622-2.625C5.242,15.138,4.067,13.966,2.621,13.966z" fill="#2D84B3"/>
	<path d="M2.621,22.75c-1.448,0-2.62,1.174-2.62,2.619c0,1.451,1.172,2.621,2.62,2.621   c1.447,0,2.622-1.17,2.622-2.621C5.242,23.924,4.067,22.75,2.621,22.75z" fill="#2D84B3"/>
</g>
<g>
</g>
<g>
</g>
<g>
</g>
<g>
</g>
<g>
</g>
<g>
</g>
<g>
</g>
<g>
</g>
<g>
</g>
<g>
</g>
<g>
</g>
<g>
</g>
<g>
</g>
<g>
</g>
<g>
</g>
</svg>
